<svg width="213" height="61" viewBox="0 0 213 61" fill="none" xmlns="http://www.w3.org/2000/svg">
<path d="M0 25C0 11.1929 11.1929 0 25 0H213V61H0V25Z" fill="#1F70FB"/>
<path d="M58.0637 22.8H66.7037V27.12H59.7917L59.6837 27.336L65.4437 37.848C66.6197 39.96 67.2077 41.568 67.2077 42.672C67.2077 45.096 66.4037 46.872 64.7957 48H55.2557V43.824H62.7077L62.8157 43.608L56.3357 31.98C55.3997 30.3 54.9317 28.932 54.9317 27.876C54.9317 25.38 55.9757 23.688 58.0637 22.8ZM69.5368 48V29.604H74.2888V48H69.5368ZM69.5368 22.8H74.2888V27.66H69.5368V22.8ZM85.3686 29.604H87.9246L88.8246 30.864C89.3286 30.408 89.8086 30.084 90.2646 29.892C90.7446 29.7 91.4526 29.604 92.3886 29.604H96.3846C97.4406 30.948 98.1606 32.292 98.5446 33.636C98.9286 34.98 99.1206 36.66 99.1206 38.676V48H94.3326V38.316C94.3326 36.108 93.9966 34.464 93.3246 33.384H89.8686C90.3966 34.416 90.6606 35.82 90.6606 37.596V48H85.8726V38.316C85.8726 36.036 85.5606 34.392 84.9366 33.384H82.1646V48H77.3766V29.604H81.1206L81.7686 30.9C82.2966 30.42 82.7886 30.084 83.2446 29.892C83.7246 29.7 84.4326 29.604 85.3686 29.604ZM108.253 48H104.473C103.417 46.656 102.697 45.312 102.313 43.968C101.929 42.624 101.737 40.944 101.737 38.928V29.604H106.525V39.288C106.525 41.472 106.957 43.116 107.821 44.22H111.169V29.604H115.957V48H112.177L111.529 46.704C110.617 47.568 109.525 48 108.253 48ZM119.073 48V29.604H122.493L123.393 31.548C124.353 30.252 125.565 29.604 127.029 29.604H128.433V34.428H123.861V48H119.073ZM138.471 39.684H134.619C134.115 40.308 133.863 41.088 133.863 42.024C133.863 42.96 134.127 43.692 134.655 44.22H138.471V39.684ZM130.731 29.604H139.659C141.099 30.468 142.047 31.464 142.503 32.592C142.959 33.696 143.187 35.208 143.187 37.128V42.528C143.187 44.52 143.235 46.344 143.331 48H139.227L138.579 46.704C137.643 47.568 136.323 48 134.619 48H132.351C130.311 46.656 129.291 44.724 129.291 42.204C129.291 39.66 130.335 37.656 132.423 36.192H135.807C136.743 36.192 137.619 36.48 138.435 37.056V35.256C138.435 34.32 138.027 33.696 137.211 33.384H130.731V29.604ZM146.283 48V29.604H151.035V48H146.283ZM146.283 22.8H151.035V27.66H146.283V22.8Z" fill="white"/>
<path d="M43.996 30.0298V42.0345C43.9961 42.1729 43.9617 42.3088 43.8965 42.428C43.8313 42.5473 43.7376 42.6455 43.6251 42.7126L33.5419 48.7396C33.435 48.8033 33.3148 48.8368 33.1926 48.8368C33.0704 48.8368 32.9502 48.8033 32.8433 48.7396L22.7601 42.7126C22.6476 42.6455 22.5539 42.5473 22.4887 42.428C22.4235 42.3088 22.3891 42.1729 22.3892 42.0345V30.0298C22.3893 29.8916 22.4238 29.756 22.489 29.637C22.5542 29.518 22.6478 29.4199 22.7601 29.3529L32.8433 23.3247C32.9502 23.2609 33.0704 23.2275 33.1926 23.2275C33.3148 23.2275 33.435 23.2609 33.5419 23.3247L43.6251 29.3529C43.7374 29.4199 43.831 29.518 43.8962 29.637C43.9614 29.756 43.9959 29.8916 43.996 30.0298V30.0298Z" stroke="#FFFEFE" stroke-width="1.5" stroke-linecap="round" stroke-linejoin="round"/>
<path d="M23.0229 29.9536L32.8421 35.8229C32.9491 35.8869 33.0695 35.9205 33.192 35.9205C33.3144 35.9205 33.4349 35.8869 33.5419 35.8229L43.3958 29.9329M33.1926 47.6572V36.0322" stroke="#FFFEFE" stroke-width="1.5" stroke-linecap="round" stroke-linejoin="round"/>
<path d="M17.7424 25.5571C18.0607 25.5571 18.3661 25.4832 18.5912 25.3516C18.8163 25.2201 18.9428 25.0416 18.9428 24.8556C18.9428 24.6695 18.8163 24.4911 18.5912 24.3595C18.3661 24.228 18.0607 24.1541 17.7424 24.1541C17.424 24.1541 17.1187 24.228 16.8936 24.3595C16.6685 24.4911 16.542 24.6695 16.542 24.8556C16.542 25.0416 16.6685 25.2201 16.8936 25.3516C17.1187 25.4832 17.424 25.5571 17.7424 25.5571Z" fill="#FFFEFE" stroke="#FFFEFE" stroke-width="1.5" stroke-linecap="round" stroke-linejoin="round"/>
<line y1="-0.5" x2="6.45834" y2="-0.5" transform="matrix(-0.863375 0.504563 -0.863375 -0.504563 22.5054 21.6196)" stroke="white"/>
<path d="M16.0001 13.0882C16.0001 13.2743 16.1266 13.4527 16.3517 13.5843C16.5768 13.7158 16.8821 13.7897 17.2005 13.7897C17.5189 13.7897 17.8242 13.7158 18.0493 13.5843C18.2744 13.4527 18.4009 13.2743 18.4009 13.0882C18.4009 12.9022 18.2744 12.7237 18.0493 12.5922C17.8242 12.4606 17.5189 12.3867 17.2005 12.3867C16.8821 12.3867 16.5768 12.4606 16.3517 12.5922C16.1266 12.7237 16.0001 12.9022 16.0001 13.0882Z" fill="#FFFEFE" stroke="#FFFEFE" stroke-width="1.5" stroke-linecap="round" stroke-linejoin="round"/>
<line y1="-0.5" x2="7.91504" y2="-0.5" transform="matrix(-0.939304 -0.343085 0.730429 -0.682989 23.4346 15.1022)" stroke="white"/>
<path d="M38.9936 8.89319C38.705 8.81455 38.3749 8.80611 38.0757 8.86973C37.7765 8.93335 37.5329 9.06382 37.3983 9.23243C37.2637 9.40105 37.2493 9.594 37.3581 9.76884C37.467 9.94367 37.6903 10.0861 37.9788 10.1647C38.2673 10.2434 38.5975 10.2518 38.8966 10.1882C39.1958 10.1246 39.4395 9.99409 39.574 9.82548C39.7086 9.65687 39.7231 9.46392 39.6142 9.28908C39.5053 9.11424 39.2821 8.97184 38.9936 8.89319Z" fill="#FFFEFE" stroke="#FFFEFE" stroke-width="1.5" stroke-linecap="round" stroke-linejoin="round"/>
<line y1="-0.5" x2="8.09542" y2="-0.5" transform="matrix(0.908376 -0.344614 0.753924 0.678721 32.7275 11.9795)" stroke="white"/>
</svg>
