<svg width="60" height="60" viewBox="0 0 60 60" fill="none" xmlns="http://www.w3.org/2000/svg">
<path d="M0 25C0 11.1929 11.1929 0 25 0H61V61H0V25Z" fill="#1F70FB"/>
<path d="M43.996 30.0298V42.0346C43.9961 42.1729 43.9617 42.3088 43.8965 42.428C43.8313 42.5473 43.7376 42.6456 43.6251 42.7127L33.5419 48.7396C33.435 48.8034 33.3148 48.8368 33.1926 48.8368C33.0704 48.8368 32.9502 48.8034 32.8433 48.7396L22.7601 42.7127C22.6476 42.6456 22.5539 42.5473 22.4887 42.428C22.4235 42.3088 22.3891 42.1729 22.3892 42.0346V30.0298C22.3893 29.8917 22.4238 29.7561 22.489 29.6371C22.5542 29.5181 22.6478 29.42 22.7601 29.353L32.8433 23.3248C32.9502 23.261 33.0704 23.2275 33.1926 23.2275C33.3148 23.2275 33.435 23.261 33.5419 23.3248L43.6251 29.353C43.7374 29.42 43.831 29.5181 43.8962 29.6371C43.9614 29.7561 43.9959 29.8917 43.996 30.0298V30.0298Z" stroke="#FFFEFE" stroke-width="1.5" stroke-linecap="round" stroke-linejoin="round"/>
<path d="M23.0229 29.9536L32.8421 35.8229C32.9491 35.8869 33.0695 35.9205 33.192 35.9205C33.3144 35.9205 33.4349 35.8869 33.5419 35.8229L43.3958 29.9329M33.1926 47.6572V36.0322" stroke="#FFFEFE" stroke-width="1.5" stroke-linecap="round" stroke-linejoin="round"/>
<path d="M17.7424 42.0893C18.0607 42.0893 18.3661 41.9912 18.5912 41.8166C18.8163 41.642 18.9428 41.4052 18.9428 41.1584C18.9428 40.9115 18.8163 40.6747 18.5912 40.5001C18.3661 40.3255 18.0607 40.2274 17.7424 40.2274C17.424 40.2274 17.1187 40.3255 16.8936 40.5001C16.6685 40.6747 16.542 40.9115 16.542 41.1584C16.542 41.4052 16.6685 41.642 16.8936 41.8166C17.1187 41.9912 17.424 42.0893 17.7424 42.0893V42.0893Z" fill="#FFFEFE" stroke="#FFFEFE" stroke-width="1.5" stroke-linecap="round" stroke-linejoin="round"/>
<line y1="-0.5" x2="7.05623" y2="-0.5" transform="matrix(-0.79022 0.612823 -0.79022 -0.612823 22.5054 36.8642)" stroke="white"/>
<path d="M16.0001 25.5432C16.0001 25.79 16.1266 26.0268 16.3517 26.2014C16.5768 26.376 16.8821 26.4741 17.2005 26.4741C17.5189 26.4741 17.8242 26.376 18.0493 26.2014C18.2744 26.0268 18.4009 25.79 18.4009 25.5432C18.4009 25.2963 18.2744 25.0595 18.0493 24.8849C17.8242 24.7103 17.5189 24.6122 17.2005 24.6122C16.8821 24.6122 16.5768 24.7103 16.3517 24.8849C16.1266 25.0595 16.0001 25.2963 16.0001 25.5432V25.5432Z" fill="#FFFEFE" stroke="#FFFEFE" stroke-width="1.5" stroke-linecap="round" stroke-linejoin="round"/>
<line y1="-0.5" x2="8.2619" y2="-0.5" transform="matrix(-0.899869 -0.436161 0.627503 -0.778614 23.4346 28.2158)" stroke="white"/>
<path d="M38.9936 19.9763C38.705 19.872 38.3749 19.8608 38.0757 19.9452C37.7765 20.0296 37.5329 20.2027 37.3983 20.4265C37.2637 20.6503 37.2493 20.9063 37.3581 21.1383C37.467 21.3703 37.6903 21.5593 37.9788 21.6636C38.2673 21.768 38.5975 21.7792 38.8966 21.6948C39.1958 21.6104 39.4395 21.4372 39.574 21.2135C39.7086 20.9897 39.7231 20.7337 39.6142 20.5017C39.5053 20.2697 39.2821 20.0807 38.9936 19.9763V19.9763Z" fill="#FFFEFE" stroke="#FFFEFE" stroke-width="1.5" stroke-linecap="round" stroke-linejoin="round"/>
<line y1="-0.5" x2="8.46792" y2="-0.5" transform="matrix(0.868416 -0.437186 0.655111 0.782619 32.728 24.0718)" stroke="white"/>
</svg>
